<svg width="512" height="512" viewBox="0 0 512 512" xmlns="http://www.w3.org/2000/svg">
  <rect x="0" y="0" width="512" height="512" rx="112" fill="#161616"/>
  <g fill="none" stroke="#f3742a" stroke-width="15" stroke-linejoin="round" stroke-linecap="round">

    <!-- 眼睛杏仁轮廓 -->
    <path d="M 70 258 Q 256 70 442 258 Q 256 446 70 258 Z" stroke-linejoin="miter"/>

    <!-- 内眼角折线 -->
    <path d="M 150 200 Q 108 258 150 316" stroke-width="13"/>
    <path d="M 362 200 Q 404 258 362 316" stroke-width="13"/>

    <!-- 虹膜外环 -->
    <circle cx="256" cy="258" r="132" stroke-width="15"/>
    <!-- 瞳孔环 -->
    <circle cx="256" cy="258" r="74" stroke-width="14"/>

    <!-- 放射刻度 -->
    <g stroke-width="9" stroke-linecap="round">
      <line x1="256.0" y1="168.0" x2="256.0" y2="148.0"/>
      <line x1="290.4" y1="174.9" x2="298.1" y2="156.4"/>
      <line x1="319.6" y1="194.4" x2="333.8" y2="180.2"/>
      <line x1="339.1" y1="223.6" x2="357.6" y2="215.9"/>
      <line x1="346.0" y1="258.0" x2="366.0" y2="258.0"/>
      <line x1="339.1" y1="292.4" x2="357.6" y2="300.1"/>
      <line x1="319.6" y1="321.6" x2="333.8" y2="335.8"/>
      <line x1="290.4" y1="341.1" x2="298.1" y2="359.6"/>
      <line x1="256.0" y1="348.0" x2="256.0" y2="368.0"/>
      <line x1="221.6" y1="341.1" x2="213.9" y2="359.6"/>
      <line x1="192.4" y1="321.6" x2="178.2" y2="335.8"/>
      <line x1="172.9" y1="292.4" x2="154.4" y2="300.1"/>
      <line x1="166.0" y1="258.0" x2="146.0" y2="258.0"/>
      <line x1="172.9" y1="223.6" x2="154.4" y2="215.9"/>
      <line x1="192.4" y1="194.4" x2="178.2" y2="180.2"/>
      <line x1="221.6" y1="174.9" x2="213.9" y2="156.4"/>
    </g>
  </g>

  <!-- 月牙瞳孔 -->
  <g>
    <circle cx="250" cy="266" r="56" fill="#f3742a"/>
    <circle cx="278" cy="246" r="48" fill="#161616"/>
  </g>
</svg>
